<svg enable-background="new 0 0 50 50" viewBox="0 0 50 50" xmlns="http://www.w3.org/2000/svg" xmlns:xlink="http://www.w3.org/1999/xlink"><mask id="a" height="103" maskUnits="userSpaceOnUse" width="103" x="-28.5" y="-29.5"><path d="m27.3 4.7h-5.3v4.1c1.7-.3 3.4-.3 5.2 0zm7.5 3.4-1.8 2.5 2.9 2 1.8-2.6zm.5 7.1c-2.9-2.9-6.5-4.4-10.6-4.4s-7.7 1.5-10.6 4.4-4.4 6.5-4.4 10.6 1.5 7.7 4.4 10.6 6.5 4.4 10.6 4.4 7.7-1.5 10.6-4.4 4.4-6.5 4.4-10.6-1.5-7.7-4.4-10.6zm-10.6-.6c3.1 0 5.7 1.1 7.9 3.3s3.3 4.8 3.3 7.9-1.1 5.7-3.3 7.9-4.8 3.3-7.9 3.3-5.7-1-7.9-3.2-3.3-4.8-3.3-7.9 1.1-5.7 3.3-7.9 4.8-3.4 7.9-3.4zm1 18.6h-1.8v2.2h1.7v-2.2zm5.3 0 1.2-1.2-1.6-1.6-1.2 1.2zm3.4-6.4v-1.8h-2.2v1.7h2.2zm-17.1 5.2 1.2 1.2 1.7-1.6-1.2-1.1zm.1-5.2v-1.8h-2.2v1.7h2.2zm1.5-5.6 1.2-1.2-1.6-1.6-1.1 1.2zm13.3-1.6-1.2-1.1-1.6 1.5 1.2 1.2zm-7.7-3.1c-.1.1-.1.1-.1.2l-1 7.6c-.2.1-.4.2-.5.4-.5.5-.8 1.2-.8 1.9 0 .8.3 1.4.8 1.9s1.2.8 1.9.8c.8 0 1.4-.3 1.9-.8s.8-1.2.8-1.9c0-.8-.3-1.4-.8-1.9-.2-.2-.3-.3-.5-.4l-1.1-7.6c0-.1-.1-.1-.1-.2-.1-.1-.1-.1-.2-.1s-.2.1-.3.1z" fill="#fff"/></mask><g transform="translate(0 2)"><path d="m27.3 4.7h-5.3v4.1c1.7-.3 3.4-.3 5.2 0zm7.5 3.4-1.8 2.5 2.9 2 1.8-2.6zm.5 7.1c-2.9-2.9-6.5-4.4-10.6-4.4s-7.7 1.5-10.6 4.4-4.4 6.5-4.4 10.6 1.5 7.7 4.4 10.6 6.5 4.4 10.6 4.4 7.7-1.5 10.6-4.4 4.4-6.5 4.4-10.6-1.5-7.7-4.4-10.6zm-10.6-.6c3.1 0 5.7 1.1 7.9 3.3s3.3 4.8 3.3 7.9-1.1 5.7-3.3 7.9-4.8 3.3-7.9 3.3-5.7-1-7.9-3.2-3.3-4.8-3.3-7.9 1.1-5.7 3.3-7.9 4.8-3.4 7.9-3.4zm1 18.6h-1.8v2.2h1.7v-2.2zm5.3 0 1.2-1.2-1.6-1.6-1.2 1.2zm3.4-6.4v-1.8h-2.2v1.7h2.2zm-17.1 5.2 1.2 1.2 1.7-1.6-1.2-1.1zm.1-5.2v-1.8h-2.2v1.7h2.2zm1.5-5.6 1.2-1.2-1.6-1.6-1.1 1.2zm13.3-1.6-1.2-1.1-1.6 1.5 1.2 1.2zm-7.7-3.1c-.1.1-.1.1-.1.2l-1 7.6c-.2.1-.4.2-.5.4-.5.5-.8 1.2-.8 1.9 0 .8.3 1.4.8 1.9s1.2.8 1.9.8c.8 0 1.4-.3 1.9-.8s.8-1.2.8-1.9c0-.8-.3-1.4-.8-1.9-.2-.2-.3-.3-.5-.4l-1.1-7.6c0-.1-.1-.1-.1-.2-.1-.1-.1-.1-.2-.1s-.2.1-.3.1z" fill="#d81f26"/><g mask="url(#a)"><path d="m-28.5-29.5h103v103h-103z" fill="#d40511"/></g></g></svg>